<svg xmlns="http://www.w3.org/2000/svg" width="650" height="321.71" viewBox="0 0 650 321.71"><title>error</title><g style="isolation:isolate"><path d="M314.62,10.41a10.4,10.4,0,0,1-10.4,10.41H179.31A10.41,10.41,0,0,1,168.9,10.41h0A10.41,10.41,0,0,1,179.31,0H304.22a10.4,10.4,0,0,1,10.4,10.41Z" style="fill:#b0d7d8"/><path d="M262.58,31.23a10.41,10.41,0,0,1-10.41,10.41H127.27a10.41,10.41,0,0,1-10.41-10.41h0a10.41,10.41,0,0,1,10.41-10.41h124.9a10.41,10.41,0,0,1,10.41,10.41Z" style="fill:#b0d7d8"/><path d="M650,224.2a10.41,10.41,0,0,1-10.41,10.41H514.68a10.41,10.41,0,0,1-10.4-10.41h0a10.41,10.41,0,0,1,10.4-10.41H639.59A10.41,10.41,0,0,1,650,224.2Z" style="fill:#b0d7d8"/><path d="M604,210.63A10.41,10.41,0,0,1,593.6,221H468.69a10.42,10.42,0,0,1-10.41-10.41h0a10.42,10.42,0,0,1,10.41-10.41H593.6A10.41,10.41,0,0,1,604,210.63Z" style="fill:#b0d7d8"/><path d="M598,245a10.41,10.41,0,0,1-10.4,10.41H462.64A10.41,10.41,0,0,1,452.23,245h0a10.41,10.41,0,0,1,10.41-10.41H587.55A10.41,10.41,0,0,1,598,245Z" style="fill:#b0d7d8"/><path d="M189.72,219.73a10.41,10.41,0,0,1-10.41,10.41H54.41A10.41,10.41,0,0,1,44,219.73h0a10.41,10.41,0,0,1,10.41-10.41h124.9a10.41,10.41,0,0,1,10.41,10.41Z" style="fill:#b0d7d8"/><path d="M169,202.54A10.41,10.41,0,0,1,158.61,213H33.71A10.41,10.41,0,0,1,23.3,202.54h0a10.41,10.41,0,0,1,10.41-10.41h124.9A10.41,10.41,0,0,1,169,202.54Z" style="fill:#b0d7d8"/><path d="M145.72,238.58A10.41,10.41,0,0,1,135.32,249H10.41A10.41,10.41,0,0,1,0,238.58H0a10.41,10.41,0,0,1,10.41-10.4H135.32a10.4,10.4,0,0,1,10.4,10.4Z" style="fill:#b0d7d8"/><path d="M482.75,307.24H144.14c-5.92,0-10.74-5.42-10.74-12.09V75.26c0-6.67,4.82-12.08,10.74-12.08H482.75c5.92,0,10.73,5.41,10.73,12.08V295.15c0,6.67-4.81,12.09-10.73,12.09Z" style="fill:#1e1e1e"/><path d="M465.82,77.78H161.07c-4.16,0-7.54,3.79-7.54,8.48v197.9c0,4.64,3.32,8.4,7.42,8.47-.2,0-.15,0,.12,0H465.82c4.16,0,7.54-3.79,7.54-8.48V86.26C473.36,81.57,470,77.78,465.82,77.78Z" style="fill:#e5e5e6"/><path d="M155.83,286.46V88.56c0-4.69,3.38-8.48,7.54-8.48H468.11a6.87,6.87,0,0,1,3.76,1.16,7.29,7.29,0,0,0-6.05-3.46H161.07c-4.16,0-7.54,3.79-7.54,8.48v197.9a8.68,8.68,0,0,0,3.79,7.31A9.15,9.15,0,0,1,155.83,286.46Z" style="fill:#87bec6;mix-blend-mode:multiply"/><path d="M313.88,302.71H92.78v10.51c0,4.68,5.18,8.49,11.56,8.49H523.41c6.39,0,11.57-3.81,11.57-8.49V302.71Z" style="fill:#1e1e1e"/><path d="M530,302.71v5.53c0,4.69-5.17,8.5-11.56,8.5H99.36a14.72,14.72,0,0,1-6.14-1.32c1.33,3.61,5.78,6.29,11.12,6.29H523.41c6.39,0,11.57-3.81,11.57-8.49V302.71Z" style="fill:#455073;opacity:0.2;mix-blend-mode:multiply"/><rect x="291.41" y="310.19" width="44.74" height="4.63" style="fill:#fff"/><path d="M465.82,77.78H427.7c0,12.45,10.62,81.29-70.13,154.8-41.26,37.56-88.12,53.09-107.36,60.06H465.82c4.16,0,7.54-3.79,7.54-8.48V86.26C473.36,81.57,470,77.78,465.82,77.78Z" style="fill:#cfd1d2"/><polygon points="425.03 147.68 411.18 146 399.35 127.91 385.02 101.54 389.6 129.16 390.1 146.25 399.77 157.75 386.45 159.56 326.58 120.32 354.74 143.89 344.92 151.04 361.41 149.47 375.27 161.08 385.9 170.44 379.31 172.6 383.46 191.84 393.56 217.84 368.57 225.04 386.06 240.55 379.13 228.75 400.86 220.1 390.73 187.73 400.59 182.14 410.96 195.49 416.99 185.69 437.31 188.9 448.55 203.65 468.35 206.4 450.36 199.61 442.02 183.04 422.01 177.51 418.45 183.3 439.3 149.41 457.03 116.5 425.03 147.68" style="fill:#434244"/><polygon points="432.45 160.55 441.2 171.73 456.08 165.11 442.91 167.38 439.3 149.41 432.45 160.55" style="fill:#434244"/><polygon points="421.96 130.89 424.76 116.3 434.92 110.63 418.78 113.1 415.15 127.84 399.35 127.91 404.56 135.87 421.96 130.89" style="fill:#434244"/><polygon points="381.7 183.68 379.73 174.54 346.31 183.13 317.18 212.89 345.95 188.63 381.7 183.68" style="fill:#434244"/><polygon points="543.79 134.64 525.93 134.61 516.42 7.91 553.53 7.95 543.79 134.64" style="fill:#1db861"/><path d="M547.9,158a13.06,13.06,0,1,1-13-13.08A13.06,13.06,0,0,1,547.9,158Z" style="fill:#1db861"/></g></svg>