<svg 
 xmlns="http://www.w3.org/2000/svg"
 xmlns:xlink="http://www.w3.org/1999/xlink"
 width="18px" height="18px">
<path fill-rule="evenodd"  fill="rgb(255, 255, 255)"
 d="M10.586,8.995 L17.663,1.912 C18.102,1.473 18.102,0.759 17.663,0.320 C17.223,-0.121 16.511,-0.121 16.071,0.320 L8.995,7.403 L1.919,0.320 C1.479,-0.121 0.767,-0.121 0.328,0.320 C-0.112,0.759 -0.112,1.473 0.328,1.912 L7.404,8.995 L0.328,16.078 C-0.112,16.518 -0.112,17.231 0.328,17.671 C0.547,17.891 0.835,18.001 1.123,18.001 C1.411,18.001 1.699,17.891 1.919,17.671 L8.995,10.588 L16.071,17.671 C16.291,17.891 16.579,18.001 16.867,18.001 C17.155,18.001 17.443,17.891 17.663,17.671 C18.102,17.231 18.102,16.518 17.663,16.078 L10.586,8.995 Z"/>
</svg>