<svg xmlns="http://www.w3.org/2000/svg" width="102.98" height="105" viewBox="0 0 102.98 105"><title>thanks</title><path d="M62.24,63.58a13.6,13.6,0,0,0-10.75-5.25h0A13.66,13.66,0,0,0,37.83,72V97.43H56.58a26.24,26.24,0,0,1,5.66-33.85Z" style="fill:#bcbcbc"/><path d="M18.82,98.91V51.23L51.49,18.57,84.15,51.23V58c.68.14,1.35.31,2,.49V50.4L51.49,15.73,16.82,50.4v50.52H59.13c-.55-.64-1.07-1.31-1.57-2Z" style="fill:#bcbcbc"/><polygon points="96.49 57.98 102.98 51.49 51.49 0 0 51.49 6.49 57.98 51.49 12.97 96.49 57.98" style="fill:#bcbcbc"/><path d="M98.91,66.71l.56-.95a2.41,2.41,0,0,0,0-2.46A2.48,2.48,0,0,0,97.36,62h0a2.45,2.45,0,0,0-1.74.73l-.39.4-3.58,3.6a21.22,21.22,0,1,0,4.51,4.56Zm-19,28.05a.47.47,0,0,1-.39.22.46.46,0,0,1-.34-.16L64.74,77.73a.45.45,0,0,1,.34-.74.4.4,0,0,1,.15,0l14,4.68.14,0a.42.42,0,0,0,.32-.13L97,64.19a.44.44,0,0,1,.32-.14.45.45,0,0,1,.39.68Z" style="fill:#1eb962"/></svg>