<svg xmlns="http://www.w3.org/2000/svg" xmlns:xlink="http://www.w3.org/1999/xlink" width="39" height="56" viewBox="0 0 39 56"><defs><linearGradient id="a" x1="-42.69" y1="149.92" x2="-42.69" y2="150.92" gradientTransform="matrix(39, 0, 0, -54, 1684.57, 8149.46)" gradientUnits="userSpaceOnUse"><stop offset="0" stop-color="#1db761"/><stop offset="1" stop-color="#28d677"/></linearGradient></defs><title>mark</title><path d="M19.5,2A19.55,19.55,0,0,0,0,21.56c0,13.38,17.45,33,18.19,33.86a1.77,1.77,0,0,0,2.62,0C21.55,54.58,39,34.94,39,21.56A19.55,19.55,0,0,0,19.5,2Zm0,29.4a9.84,9.84,0,1,1,9.81-9.84A9.84,9.84,0,0,1,19.5,31.4Z" style="fill:#1ba557"/><path d="M19.5,0A19.55,19.55,0,0,0,0,19.56c0,13.38,17.45,33,18.19,33.86a1.77,1.77,0,0,0,2.62,0C21.55,52.58,39,32.94,39,19.56A19.55,19.55,0,0,0,19.5,0Zm0,29.4a9.84,9.84,0,1,1,9.81-9.84A9.84,9.84,0,0,1,19.5,29.4Z" style="fill:url(#a)"/></svg>